<svg width="500" height="500" viewBox="0 0 500 500" fill="none" xmlns="http://www.w3.org/2000/svg">
<g clip-path="url(#clip0_2366_2)">
<path fill-rule="evenodd" clip-rule="evenodd" d="M500 250C500 388.071 388.071 500 250 500C111.929 500 0 388.071 0 250C0 111.929 111.929 0 250 0C388.071 0 500 111.929 500 250ZM328.963 271.365L249.5 409L165.453 263.427C155.666 247.971 150 229.647 150 210C150 154.772 194.772 110 250 110C305.228 110 350 154.772 350 210C350 233.129 342.148 254.424 328.963 271.365Z" fill="url(#paint0_radial_2366_2)"/>
</g>
<defs>
<radialGradient id="paint0_radial_2366_2" cx="0" cy="0" r="1" gradientUnits="userSpaceOnUse" gradientTransform="translate(250 250) rotate(90) scale(250)">
<stop offset="0.338542" stop-color="#FFB800"/>
<stop offset="1" stop-color="white" stop-opacity="0"/>
</radialGradient>
<clipPath id="clip0_2366_2">
<rect width="500" height="500" fill="white"/>
</clipPath>
</defs>
</svg>
